<?xml version="1.0" encoding="iso-8859-1"?>
<!-- Generator: Adobe Illustrator 19.0.0, SVG Export Plug-In . SVG Version: 6.00 Build 0)  -->
<svg version="1.1" id="Capa_1" xmlns="http://www.w3.org/2000/svg" xmlns:xlink="http://www.w3.org/1999/xlink" x="0px" y="0px"
	 viewBox="0 0 496 496" style="enable-background:new 0 0 496 496;" xml:space="preserve">
<g>
	<g>
		<g>
			<path d="M493.656,306.344L339.312,152l10.344-10.344c3.123-3.124,3.123-8.188,0-11.312l-48-48c-3.124-3.123-8.188-3.123-11.312,0
				l-20.968,20.968C258.882,88.694,241.995,80.018,224,80c-1.504,0-2.984,0.112-4.464,0.224l-77.88-77.88
				C140.156,0.844,138.122,0,136,0H8C3.582,0,0,3.582,0,8v48c0,4.418,3.582,8,8,8h100.688l60.512,60.512
				c-4.568,21.663,4.109,43.978,22.112,56.864l-44.968,44.968c-3.123,3.124-3.123,8.188,0,11.312l48,48
				c3.124,3.123,8.188,3.123,11.312,0L220,271.312l102.344,102.344c1.5,1.5,3.534,2.344,5.656,2.344h72
				c2.122,0,4.156-0.844,5.656-2.344L424,355.312l8,8V408c0,13.255-10.745,24-24,24H264c-4.418,0-8-3.582-8-8v-16
				c-0.026-26.499-21.501-47.974-48-48H8c-4.418,0-8,3.582-8,8v48c0,4.418,3.582,8,8,8h176c4.418,0,8,3.582,8,8v16
				c0.026,26.499,21.501,47.974,48,48h176c44.163-0.049,79.952-35.837,80-80V312C496,309.878,495.156,307.844,493.656,306.344z
				 M340.688,176L304,212.688L291.312,200L328,163.312L340.688,176z M372.688,304L352,324.688L283.312,256L304,235.312L372.688,304z
				 M32,48H16V16h16V48z M117.656,50.344c-1.5-1.5-3.534-2.344-5.656-2.344H48V16h84.688l68.8,68.8
				c-10.925,4.841-20.026,13.034-25.984,23.392L117.656,50.344z M184,136c0-22.091,17.909-40,40-40s40,17.909,40,40
				s-17.909,40-40,40C201.92,175.974,184.026,158.08,184,136z M200,268.688L163.312,232l42.936-42.936
				c29.241,9.87,60.946-5.834,70.816-35.075c3.913-11.592,3.913-24.149,0-35.741L296,99.312L332.688,136l-10.344,10.344l-48,48
				L200,268.688z M396.688,360h-65.376l-100-100L280,211.312L292.688,224l-26.344,26.344c-3.123,3.124-3.123,8.188,0,11.312l80,80
				c3.124,3.123,8.188,3.123,11.312,0L384,315.312L412.688,344L396.688,360z M315.312,224L352,187.312L476.688,312L440,348.688
				L315.312,224z M480,416c-0.04,35.33-28.67,63.96-64,64H240c-17.673,0-32-14.327-32-32v-16c0-13.255-10.745-24-24-24H16v-32h192
				c17.673,0,32,14.327,32,32v16c0,13.255,10.745,24,24,24h144c22.08-0.026,39.974-17.92,40-40v-44.688l32-32V416z"/>
			<path d="M40,176c14.296,0.14,27.665-7.06,35.416-19.072c6.525-10.52,6.044-23.941-1.216-33.968L46.56,83.416
				c-2.819-3.623-8.042-4.275-11.664-1.456c-0.544,0.423-1.033,0.912-1.456,1.456L5.8,122.96
				c-7.26,10.027-7.741,23.448-1.216,33.968C12.335,168.94,25.704,176.14,40,176z M18.912,132.136L40,101.96l21.088,30.176
				c3.534,4.725,3.869,11.115,0.848,16.184C57.11,155.716,48.831,160.124,40,160c-8.831,0.124-17.11-4.284-21.936-11.68
				C15.043,143.251,15.378,136.861,18.912,132.136z"/>
		</g>
	</g>
</g>
<g>
</g>
<g>
</g>
<g>
</g>
<g>
</g>
<g>
</g>
<g>
</g>
<g>
</g>
<g>
</g>
<g>
</g>
<g>
</g>
<g>
</g>
<g>
</g>
<g>
</g>
<g>
</g>
<g>
</g>
</svg>
