<?xml version="1.0" encoding="UTF-8"?>
<!-- Generator: Adobe Illustrator 15.0.2, SVG Export Plug-In . SVG Version: 6.00 Build 0)  -->
<!DOCTYPE svg PUBLIC "-//W3C//DTD SVG 1.1//EN" "http://www.w3.org/Graphics/SVG/1.1/DTD/svg11.dtd">
<svg version="1.1" id="Warstwa_1" xmlns="http://www.w3.org/2000/svg" xmlns:xlink="http://www.w3.org/1999/xlink" x="0px" y="0px" width="842px" height="108px" viewBox="0 0 842 108" enable-background="new 0 0 842 108" xml:space="preserve">
<g>
	<path fill="#142355" d="M124.571,5.404l-3.938,21.591h33.971l-13.254,75.64h26.409l13.244-75.64h34.375l3.958-21.591H124.571   L124.571,5.404z"/>
	<path fill="#C82814" d="M455.4,5.416l-31.941,32.479L402.76,5.416h-24.438l-17.034,97.24h25.098l10.351-59.434l15.557,27.072   h12.338l24.123-26.828l-10.289,59.189h25.101L480.6,5.416H455.4L455.4,5.416z"/>
	<path fill="#142355" d="M625.88,5.404l-3.949,21.591h33.964l-13.236,75.64h26.397l13.244-75.64h34.386l3.956-21.591H625.88   L625.88,5.404z"/>
	<path fill="#C82814" d="M15.721,92.176C-5.321,71.099-5.311,36.827,15.77,15.779C36.852-5.281,71.128-5.25,92.17,15.818   l-19.073,19.05c-10.545-10.544-27.719-10.554-38.265-0.021c-10.555,10.544-10.565,27.705-0.029,38.259L15.721,92.176L15.721,92.176   z"/>
	<path fill="#142355" d="M92.187,15.832c21.051,21.068,21.051,55.34-0.029,76.388c-21.092,21.051-55.358,21.041-76.41-0.039   l19.073-19.059C45.377,83.677,62.53,83.685,73.095,73.15c10.545-10.545,10.565-27.713,0.02-38.26L92.187,15.832L92.187,15.832z"/>
	<path fill="#142355" d="M248.409,92.176c-21.042-21.077-21.032-55.349,0.049-76.396c21.081-21.061,55.347-21.029,76.4,0.039   l-19.073,19.05c-10.556-10.544-27.718-10.554-38.274-0.021c-10.536,10.544-10.565,27.705-0.02,38.259L248.409,92.176   L248.409,92.176z"/>
	<path fill="#C82814" d="M324.88,15.832c21.051,21.068,21.032,55.34-0.041,76.388c-21.082,21.051-55.357,21.041-76.41-0.039   l19.083-19.059c10.545,10.555,27.708,10.562,38.273,0.028c10.545-10.545,10.565-27.713,0.01-38.26L324.88,15.832L324.88,15.832z"/>
	<path fill="#C82814" d="M517.023,92.176c-21.041-21.077-21.031-55.349,0.051-76.396c21.08-21.061,55.348-21.029,76.397,0.039   l-19.082,19.05c-10.545-10.544-27.709-10.554-38.264-0.021c-10.547,10.544-10.565,27.705-0.02,38.259L517.023,92.176   L517.023,92.176z"/>
	<path fill="#142355" d="M593.486,15.832c21.055,21.068,21.035,55.34-0.029,76.388c-21.09,21.051-55.357,21.041-76.408-0.039   l19.072-19.059c10.557,10.555,27.709,10.562,38.273,0.028c10.557-10.545,10.563-27.713,0.01-38.26L593.486,15.832L593.486,15.832z"/>
	<path fill="#142355" d="M749.705,92.176c-21.043-21.077-21.033-55.349,0.049-76.396c21.082-21.061,55.348-21.029,76.4,0.039   l-19.072,19.05c-10.547-10.544-27.719-10.554-38.266-0.021c-10.556,10.544-10.564,27.705-0.029,38.259l-19.084,19.069   L749.705,92.176L749.705,92.176z"/>
	<path fill="#C82814" d="M826.167,15.832c21.053,21.068,21.043,55.34-0.029,76.388c-21.082,21.051-55.356,21.041-76.409-0.039   L768.8,73.122c10.547,10.555,27.709,10.562,38.275,0.028c10.545-10.545,10.562-27.713,0.02-38.26L826.167,15.832L826.167,15.832z"/>
</g>
</svg>